<svg width="42" height="42" viewBox="0 0 42 42" fill="none" xmlns="http://www.w3.org/2000/svg">
<path d="M24.206 28.994C24.5674 29.16 24.9746 29.1979 25.3605 29.1015C25.7463 29.0051 26.0878 28.7802 26.3288 28.4637L26.95 27.65C27.276 27.2153 27.6988 26.8625 28.1848 26.6195C28.6707 26.3765 29.2066 26.25 29.75 26.25H35C35.9283 26.25 36.8185 26.6187 37.4749 27.2751C38.1313 27.9315 38.5 28.8217 38.5 29.75V35C38.5 35.9283 38.1313 36.8185 37.4749 37.4749C36.8185 38.1313 35.9283 38.5 35 38.5C26.6457 38.5 18.6335 35.1813 12.7261 29.2739C6.81874 23.3665 3.5 15.3543 3.5 7C3.5 6.07174 3.86875 5.1815 4.52513 4.52513C5.1815 3.86875 6.07174 3.5 7 3.5H12.25C13.1783 3.5 14.0685 3.86875 14.7249 4.52513C15.3813 5.1815 15.75 6.07174 15.75 7V12.25C15.75 12.7934 15.6235 13.3293 15.3805 13.8152C15.1375 14.3012 14.7847 14.724 14.35 15.05L13.531 15.6643C13.2097 15.9096 12.9833 16.2585 12.8901 16.6519C12.797 17.0452 12.8429 17.4587 13.02 17.822C15.4117 22.6798 19.3452 26.6084 24.206 28.994Z" stroke="#0A0A0A" stroke-width="1.5" stroke-linecap="round" stroke-linejoin="round"/>
</svg>
