<svg width="42" height="42" viewBox="0 0 42 42" fill="none" xmlns="http://www.w3.org/2000/svg">
<path d="M38.5 29.75C38.5 30.6783 38.1313 31.5685 37.4749 32.2249C36.8185 32.8813 35.9283 33.25 35 33.25H11.949C11.0208 33.2502 10.1307 33.6191 9.4745 34.2755L5.621 38.129C5.44723 38.3027 5.22586 38.421 4.98486 38.469C4.74386 38.5169 4.49405 38.4923 4.26704 38.3983C4.04002 38.3042 3.84598 38.145 3.70945 37.9407C3.57292 37.7364 3.50003 37.4962 3.5 37.2505V8.75C3.5 7.82174 3.86875 6.9315 4.52513 6.27513C5.1815 5.61875 6.07174 5.25 7 5.25H35C35.9283 5.25 36.8185 5.61875 37.4749 6.27513C38.1313 6.9315 38.5 7.82174 38.5 8.75V29.75Z" stroke="#0A0A0A" stroke-width="2" stroke-linecap="round" stroke-linejoin="round"/>
<path d="M21 19.25H21.0175" stroke="#0A0A0A" stroke-width="2" stroke-linecap="round" stroke-linejoin="round"/>
<path d="M28 19.25H28.0175" stroke="#0A0A0A" stroke-width="2" stroke-linecap="round" stroke-linejoin="round"/>
<path d="M14 19.25H14.0175" stroke="#0A0A0A" stroke-width="2" stroke-linecap="round" stroke-linejoin="round"/>
</svg>
